# xmcd
#
# Track frame offsets: 
#        150
#        11767
#        32023
#        47951
#        66395
#        86625
#        103954
#        119271
#        138191
#        155618
#        178835
#        199189
#        220056
#        237336
#        252925
#        266940
#        286522
#        304509
#
# Disc length: 4272 seconds
#
# Revision: 5
# Processed by: cddbd v1.5.2PL0 Copyright (c) Steve Scherf et al.
# Submitted via: ExactAudioCopy v0.99pb5
#
DISCID=0a10ae12
DTITLE=Dr. Hector And The Groove Injectors - Cure For The Common Groov
DTITLE=e
DYEAR=1998
DGENRE=
TTITLE0=Risky Business
TTITLE1=Bad News
TTITLE2=Just To Satisfy You
TTITLE3=Confusion
TTITLE4=14 Carat Fool
TTITLE5=King Snake Shake
TTITLE6=Two Strong People
TTITLE7=Real Good Sign
TTITLE8=Wrong Side Of Love
TTITLE9=Safe In Your Arms Again
TTITLE10=Pickin' The Blues
TTITLE11=Mystery Man
TTITLE12=Midnight Run
TTITLE13=I Wonder Where I'm Going To Sleep Tonight
TTITLE14=Can't Take No For An Answer
TTITLE15=All Cried Out
TTITLE16=Mr. Right Now
TTITLE17=Emergency
EXTD=
EXTT0=
EXTT1=
EXTT2=
EXTT3=
EXTT4=
EXTT5=
EXTT6=
EXTT7=
EXTT8=
EXTT9=
EXTT10=
EXTT11=
EXTT12=
EXTT13=
EXTT14=
EXTT15=
EXTT16=
EXTT17=
PLAYORDER=
